<svg width="52" height="41" viewBox="0 0 52 41" fill="none" xmlns="http://www.w3.org/2000/svg">
<path d="M31.6233 18.6206C31.6233 18.6206 31.6085 18.628 31.5986 18.6305L31.6208 18.6182L31.6233 18.6206Z" fill="black"/>
<path d="M20.7702 24.0045C20.7298 24.0297 20.6869 24.0525 20.6465 24.0752L20.6515 24.0525C20.6919 24.0348 20.7323 24.0196 20.7702 24.002V24.0045Z" fill="black"/>
<path d="M50.265 27.8204C48.1362 33.9491 42.4115 35.684 41.4191 35.9365C41.4039 35.9415 41.3964 35.9213 41.4115 35.9138C45.3989 33.6764 47.2423 28.9239 45.8408 24.7118C44.4241 20.4618 39.9267 17.3179 35.3989 17.8937C34.5858 18.2346 33.7702 18.5679 32.952 18.8962C31.308 19.5452 27.6894 21.0982 26.0884 21.6638C29.4091 20.2396 32.9065 18.6235 36.3535 17.2169L38.1868 16.3533C39.005 16.0629 40.2045 15.6058 41.6716 15.5654C42.5529 15.5427 46.7575 15.424 49.2953 18.4063C52.3054 21.9416 50.4999 27.1487 50.265 27.8229V27.8204Z" fill="black"/>
<path d="M31.6233 18.6206C31.6233 18.6206 31.6085 18.628 31.5986 18.6305L31.6208 18.6182L31.6233 18.6206Z" fill="black"/>
<path d="M16.5131 34.2538L16.4727 34.2967L16.4903 34.2664C16.503 34.2538 16.5105 34.2513 16.5105 34.2538H16.5131Z" fill="black"/>
<path d="M40.5202 36.5265C40.5202 36.5265 40.5127 36.5542 40.5101 36.5542C40.3107 36.7032 40.1086 36.8648 39.9016 37.0088C39.899 37.0113 39.8965 37.0138 39.894 37.0138C39.2703 37.385 38.5758 37.7184 37.8511 38.0189C38.1465 37.8876 38.442 37.7512 38.7324 37.6098C39.2753 37.3295 39.8132 37.0315 40.3031 36.6679L40.4091 36.5921L40.4622 36.5542L40.4899 36.534V36.5088C40.4899 36.5088 40.5127 36.5164 40.5152 36.5265H40.5202Z" fill="black"/>
<path d="M0.681773 19.9621C0.744904 19.7979 0.810561 19.6413 0.881267 19.4873C0.760056 19.8156 0.643894 20.1514 0.54541 20.4898C0.578238 20.3408 0.616117 20.1944 0.659046 20.0479C0.666622 20.0201 0.674197 19.9924 0.684298 19.9621H0.681773Z" fill="black"/>
<path d="M20.7702 24.0045C20.7298 24.0297 20.6869 24.0525 20.6465 24.0752L20.6515 24.0525C20.6919 24.0348 20.7323 24.0196 20.7702 24.002V24.0045Z" fill="black"/>
<path d="M18.4023 24.5438L18.4074 24.5539L18.4124 24.564L19.415 24.0918L18.4049 24.5438H18.4023Z" fill="black"/>
<path d="M21.6212 19.6797C21.6111 19.6948 21.601 19.71 21.5934 19.7251C21.5883 19.7327 21.5833 19.7403 21.5807 19.7504L21.5605 19.7681C21.5807 19.7378 21.601 19.71 21.6212 19.6797Z" fill="black"/>
<path d="M20.6518 24.0553L20.6467 24.0781C20.1745 24.3483 19.6543 24.578 19.172 24.8331C16.5053 26.1689 13.869 27.5705 11.1165 28.722C10.0155 29.1689 8.80334 29.6967 7.68213 29.876C7.119 30.03 6.36901 30.1007 5.73517 30.0629C3.68973 29.9846 1.92711 28.8078 0.977624 27.0124C0.515506 26.1487 0.167023 25.2144 0.0483365 24.2397C-0.12338 22.8255 0.179648 21.2574 0.684696 19.9619C0.674595 19.9897 0.667019 20.0175 0.659444 20.0478C0.616515 20.1942 0.578636 20.3407 0.545808 20.4897C0.545808 20.4897 0.545808 20.4922 0.545808 20.4947C0.177123 21.7069 -0.0349971 22.9695 0.144295 24.2296C0.273082 25.1866 0.631666 26.1058 1.09631 26.9492C2.0357 28.6866 3.75791 29.8179 5.74527 29.8709C7.60132 29.9391 9.34121 29.1967 11.018 28.4821C13.1998 27.5326 15.3538 26.5099 17.5003 25.4796C18.5432 24.9998 19.6063 24.4897 20.6568 24.0553H20.6518Z" fill="black"/>
<path d="M41.1846 36.0927C40.8109 36.4185 40.3766 36.7241 39.9018 37.0069C40.1089 36.8629 40.3109 36.7039 40.5104 36.5523C40.5155 36.5523 40.5256 36.5347 40.5205 36.5246C40.5154 36.5145 40.5054 36.5069 40.4953 36.5069V36.5321L40.4675 36.5523L40.4144 36.5902L40.3084 36.666C39.8185 37.0296 39.2806 37.3276 38.7377 37.6079C38.4473 37.7493 38.1518 37.8882 37.8564 38.017C34.268 39.5043 29.9473 40.1458 29.9473 40.1458H11.7555L10.2631 40.1786C9.69997 40.4412 9.11664 40.6458 8.52321 40.8351C9.64947 40.7745 10.9702 40.6937 11.9525 40.7038C14.5989 40.6963 21.8236 40.6634 24.5686 40.6533C25.3337 40.6205 29.1115 40.7367 29.7933 40.5498C32.5357 39.916 35.2781 39.1609 37.8539 38.0145C38.5786 37.714 39.273 37.3806 39.8968 37.0094C39.8261 37.0574 39.7554 37.1028 39.6846 37.1483C38.2099 38.1079 36.5609 38.7594 34.9094 39.3503C33.2453 39.9185 31.5584 40.4084 29.8438 40.8048C29.1443 41.0043 25.3564 40.8756 24.5686 40.9084C21.2125 40.8983 14.1924 40.8554 10.9045 40.8629C10.1873 40.8932 8.48028 40.9665 7.75554 40.9993H7.75049V40.868H7.75301C8.20251 40.8326 8.65705 40.6559 9.08886 40.5144C9.53078 40.3554 9.97522 40.2013 10.3894 39.9942C11.2277 39.5852 11.9803 39.0069 12.609 38.315C12.6419 38.315 15.9525 34.7367 16.4499 34.2897C16.4525 34.2897 16.455 34.2872 16.455 34.2847C16.4701 34.2721 16.4802 34.262 16.4903 34.2569L16.4727 34.2872L15.8262 35.4286L15.6974 35.6433C15.5712 35.815 15.6949 36.0574 15.9095 36.0574H18.1772L20.1242 26.6181L20.6494 24.0676C20.6923 24.0448 20.7327 24.0196 20.7731 23.9969C20.7327 24.012 20.6923 24.0297 20.6545 24.0474L24.2378 22.4817L25.8388 21.7822V21.7898L24.8085 26.6231L22.8565 35.7948C22.8438 35.8529 22.8085 36.0321 22.7605 36.0624H41.1796C41.1796 36.0624 41.1973 36.0801 41.1897 36.0877L41.1846 36.0927Z" fill="black"/>
<path d="M16.5025 34.2422L16.4924 34.2624C16.4924 34.2624 16.4722 34.2801 16.457 34.2927C16.4873 34.2599 16.505 34.2422 16.505 34.2422H16.5025Z" fill="black"/>
<path d="M20.7702 24.0045C20.7298 24.0297 20.6869 24.0525 20.6465 24.0752L20.6515 24.0525C20.6919 24.0348 20.7323 24.0196 20.7702 24.002V24.0045Z" fill="black"/>
<path d="M40.5202 36.5245C40.5202 36.5245 40.5127 36.5523 40.5101 36.5523C40.3107 36.7013 40.1086 36.8629 39.9016 37.0068C39.899 37.0094 39.8965 37.0119 39.894 37.0119C39.2703 37.3831 38.5758 37.7164 37.8511 38.0169C38.1465 37.8856 38.442 37.7492 38.7324 37.6078C39.2753 37.3275 39.8132 37.0296 40.3031 36.6659L40.4091 36.5902L40.4622 36.5523L40.4899 36.5321V36.5068C40.4899 36.5068 40.5127 36.5144 40.5152 36.5245H40.5202Z" fill="black"/>
<path d="M31.6236 18.6182L31.6009 18.6308C31.6009 18.6308 31.6186 18.6232 31.6261 18.6207L31.6236 18.6182ZM0.681857 19.9616C0.671756 19.9894 0.66418 20.0171 0.656605 20.0474C0.613676 20.1939 0.575797 20.3404 0.542969 20.4894C0.643978 20.151 0.757614 19.8151 0.878825 19.4868C0.810644 19.6409 0.742463 19.8 0.679332 19.9616H0.681857Z" fill="black"/>
<path d="M45.0151 5.6543C44.0631 2.64422 40.1086 1.52806 34.9293 1.48766L9.86632 1.35635C9.86632 1.35635 9.85369 1.3513 9.83097 1.34372C9.63147 1.27049 9.46228 1.13918 9.34107 0.977561C19.5961 0.997763 30.5581 0.924531 39.1995 0.934632C30.6112 0.853824 19.5228 0.740188 9.19461 0.725037C9.14915 0.613926 9.12138 0.49019 9.11127 0.366453C9.10622 0.320999 9.11127 0.27807 9.12138 0.232615L9.13148 0.179585C9.15926 0.0230207 8.96229 -0.0653627 8.8638 0.058374C8.72491 0.235141 8.55067 0.457362 8.34613 0.712411C8.28047 0.793218 8.21229 0.876551 8.14411 0.964935C7.31331 1.99271 6.09109 3.46745 4.74514 4.93966C4.26282 5.46743 3.74767 5.96491 3.20222 6.42703C3.16181 6.45985 3.14666 6.50026 3.14666 6.53814C3.14666 6.64672 3.27292 6.74773 3.38656 6.6644L4.60878 5.78814C4.79564 5.62652 5.03554 5.54067 5.28301 5.54067H24.341C24.4369 5.54067 24.5102 5.62905 24.49 5.72248L23.5354 10.3714L23.0758 12.6113C23.0708 12.6341 23.0632 12.6543 23.0506 12.6719C23.0329 12.7022 23.0051 12.7275 22.9748 12.7477C22.9243 12.778 22.8662 12.7982 22.8082 12.7957C22.7526 12.7957 22.7021 12.778 22.6642 12.7401C22.6112 12.6871 22.5556 12.6265 22.5001 12.5709C15.0001 2.43462 4.72746 13.5179 4.49514 13.7704L4.48756 13.778C4.37645 13.8841 2.07849 16.1189 0.937078 19.1997C0.937078 19.2073 0.932028 19.2123 0.929503 19.2174C0.841119 19.4623 0.757786 19.7098 0.684554 19.9648C0.747685 19.8007 0.813341 19.6441 0.884048 19.4901C0.762837 19.8184 0.646676 20.1542 0.548192 20.4926C0.548192 20.4926 0.548192 20.4951 0.548192 20.4977C0.219911 21.8992 0.184557 23.4219 0.699706 24.9698C2.52798 30.4622 7.29815 29.2703 7.73755 29.1466C7.75522 29.1415 7.7729 29.139 7.79058 29.1365C8.89663 28.9976 11.6542 27.8385 14.3208 26.485L17.9067 24.7931L18.4117 24.5532L18.4067 24.5431L18.4016 24.533L19.4117 24.081L20.1945 23.73L20.7678 23.4724L20.7804 23.4673L21.7526 23.033L23.7652 22.1315L33.4091 17.8815L33.4293 17.8714C35.5783 16.9724 38.7929 15.5861 38.9495 15.5078C39.7525 15.1896 42.8712 13.8462 44.3863 10.4497C44.6287 9.9068 45.1944 8.70732 45.2348 7.29823C45.25 6.77298 45.1894 6.2149 45.0126 5.6543H45.0151ZM24.8385 15.5154C24.8258 15.5305 24.8183 15.5457 24.8132 15.5633C24.793 15.5886 24.7703 15.6138 24.7501 15.6391C23.6794 16.9219 22.4572 18.4497 21.6238 19.682C21.6137 19.6972 21.6036 19.7123 21.5961 19.7275C21.591 19.735 21.586 19.7426 21.5834 19.7527C21.5557 19.8032 21.538 19.8562 21.5253 19.9143L21.2375 21.283V21.2881H21.1188C20.9925 21.3285 20.8713 21.3689 20.7476 21.4067C19.7198 21.7325 18.7703 22.0305 17.9016 22.2981L13.1895 23.687C11.3764 24.2199 9.46733 24.3789 7.60371 24.0911C5.13655 23.7123 2.4396 22.5456 2.61131 19.2527C2.65172 18.4623 2.77798 17.576 3.0507 16.7679V16.7654C3.26282 16.1366 3.56585 15.5558 3.98504 15.1037C5.32342 13.6618 8.00522 11.8007 11.3991 11.528C11.6643 11.5103 11.932 11.5129 12.1996 11.5356H12.2047C15.3234 11.7805 18.5658 14.4901 19.7122 16.9169C20.1693 17.8866 20.3259 18.8537 20.3284 19.7249C20.3284 19.7729 20.3486 19.8108 20.3764 19.8386C20.4344 19.8916 20.5329 19.8966 20.5935 19.8259C20.8082 19.581 21.0582 19.3007 21.3233 19.0027C21.49 18.8184 21.6617 18.6265 21.8385 18.432C21.8486 18.4194 21.8612 18.4068 21.8713 18.3967C21.8738 18.3941 21.8764 18.3891 21.8789 18.3866L21.8738 18.4068L24.6188 15.528L25.4546 14.6517L25.4445 14.6467L25.4496 14.6416L26.9824 13.0356C26.8208 13.2174 26.2627 13.8462 25.538 14.6972C25.3183 14.9548 25.0834 15.2325 24.8359 15.5255L24.8385 15.5154ZM31.6011 18.6315L31.6238 18.6189C31.6238 18.6189 31.6086 18.629 31.5985 18.6315H31.6011ZM31.596 18.6214L31.6187 18.6088C31.6187 18.6088 31.6036 18.6189 31.5935 18.6214H31.596ZM38.053 14.225C38.0253 14.2502 37.9596 14.3108 37.9545 14.3159C37.4192 14.7957 35.8687 15.9396 31.9142 17.5608C30.543 18.1239 28.8814 18.7426 26.8738 19.4118C26.7854 19.4421 26.697 19.4699 26.6087 19.5002C26.4546 19.5507 26.3031 19.4143 26.3334 19.2552L26.4622 18.6391L26.4824 18.5406L26.7551 17.2275L27.5304 13.5078L27.596 13.1896L27.644 12.9649C28.0228 12.4598 28.5253 12.0507 28.9799 11.682C29.846 10.9851 30.745 10.5255 31.2399 10.2982C31.2551 10.2906 31.1036 10.2528 31.0884 10.2578C30.7071 10.3664 29.6187 10.6012 27.8511 11.9573L27.8561 11.9396L27.9016 11.7275L29.2349 5.66188C29.2501 5.59622 29.3056 5.54572 29.3763 5.54319H33.6162C33.745 5.54319 33.8763 5.54319 34.0051 5.54824C34.8536 5.56844 36.6566 5.85885 36.7197 5.874C40.8081 6.62652 43.9924 8.70479 38.0556 14.2224L38.053 14.225Z" fill="black"/>
</svg>
