<svg width="22" height="18" viewBox="0 0 22 18" fill="none" xmlns="http://www.w3.org/2000/svg">
<path d="M0.857653 1.20348V16.6412C0.857653 16.755 0.812474 16.8641 0.732053 16.9445C0.651632 17.0249 0.542559 17.0701 0.428827 17.0701C0.315095 17.0701 0.206021 17.0249 0.125601 16.9445C0.0451799 16.8641 0 16.755 0 16.6412V1.20348C0 1.08975 0.0451799 0.980679 0.125601 0.900259C0.206021 0.819838 0.315095 0.774658 0.428827 0.774658C0.542559 0.774658 0.651632 0.819838 0.732053 0.900259C0.812474 0.980679 0.857653 1.08975 0.857653 1.20348ZM10.4205 7.45471L7.71888 8.33166V5.49175C7.71888 5.37802 7.6737 5.26895 7.59328 5.18853C7.51286 5.10811 7.40379 5.06293 7.29005 5.06293C7.17632 5.06293 7.06725 5.10811 6.98683 5.18853C6.90641 5.26895 6.86123 5.37802 6.86123 5.49175V8.33166L4.15962 7.45471C4.05143 7.41959 3.93373 7.42889 3.8324 7.48056C3.73107 7.53223 3.65441 7.62204 3.6193 7.73023C3.58418 7.83842 3.59348 7.95612 3.64515 8.05745C3.69682 8.15878 3.78663 8.23544 3.89482 8.27055L6.59643 9.1475L4.93151 11.446C4.89655 11.4914 4.87105 11.5434 4.85652 11.5988C4.84199 11.6543 4.83872 11.7121 4.84691 11.7688C4.85509 11.8255 4.87457 11.88 4.90418 11.9291C4.93379 11.9782 4.97294 12.0208 5.01931 12.0545C5.06568 12.0882 5.11833 12.1122 5.17415 12.1252C5.22998 12.1382 5.28784 12.1399 5.34431 12.1301C5.40079 12.1204 5.45474 12.0994 5.50298 12.0684C5.55121 12.0375 5.59275 11.9972 5.62513 11.9499L7.29005 9.65244L8.95926 11.9499C8.99907 12.0047 9.0513 12.0493 9.11168 12.0801C9.17205 12.1108 9.23886 12.1268 9.30661 12.1268C9.38562 12.1266 9.46306 12.1047 9.53037 12.0633C9.59769 12.022 9.65227 11.9628 9.68809 11.8924C9.72392 11.8219 9.73958 11.743 9.73337 11.6642C9.72716 11.5855 9.69931 11.5099 9.65289 11.446L7.98368 9.1475L10.6853 8.27055C10.7389 8.25316 10.7885 8.2254 10.8313 8.18883C10.8742 8.15227 10.9094 8.10763 10.935 8.05745C10.9605 8.00728 10.976 7.95256 10.9804 7.89641C10.9849 7.84027 10.9782 7.7838 10.9608 7.73023C10.9434 7.67666 10.9157 7.62704 10.8791 7.5842C10.8425 7.54136 10.7979 7.50615 10.7477 7.48056C10.6975 7.45498 10.6428 7.43953 10.5867 7.43509C10.5305 7.43065 10.4741 7.43732 10.4205 7.45471ZM21.2484 7.73023C21.2132 7.62303 21.1372 7.53399 21.0369 7.48242C20.9366 7.43085 20.82 7.42089 20.7123 7.45471L18.0107 8.33166V5.49175C18.0107 5.37802 17.9655 5.26895 17.8851 5.18853C17.8047 5.10811 17.6956 5.06293 17.5819 5.06293C17.4682 5.06293 17.3591 5.10811 17.2787 5.18853C17.1982 5.26895 17.1531 5.37802 17.1531 5.49175V8.33166L14.4515 7.45471C14.3433 7.41959 14.2256 7.42889 14.1242 7.48056C14.0229 7.53223 13.9463 7.62204 13.9111 7.73023C13.876 7.83842 13.8853 7.95612 13.937 8.05745C13.9887 8.15878 14.0785 8.23544 14.1867 8.27055L16.8883 9.1475L15.2233 11.446C15.1884 11.4914 15.1629 11.5434 15.1484 11.5988C15.1338 11.6543 15.1306 11.7121 15.1388 11.7688C15.1469 11.8255 15.1664 11.88 15.196 11.9291C15.2256 11.9782 15.2648 12.0208 15.3111 12.0545C15.3575 12.0882 15.4102 12.1122 15.466 12.1252C15.5218 12.1382 15.5797 12.1399 15.6362 12.1301C15.6926 12.1204 15.7466 12.0994 15.7948 12.0684C15.8431 12.0375 15.8846 11.9972 15.917 11.9499L17.5819 9.65244L19.2511 11.9499C19.2909 12.0047 19.3431 12.0493 19.4035 12.0801C19.4639 12.1108 19.5307 12.1268 19.5985 12.1268C19.6775 12.1266 19.7549 12.1047 19.8222 12.0633C19.8895 12.022 19.9441 11.9628 19.9799 11.8924C20.0158 11.8219 20.0314 11.743 20.0252 11.6642C20.019 11.5855 19.9911 11.5099 19.9447 11.446L18.2755 9.1475L20.9771 8.27055C21.0307 8.25317 21.0803 8.2254 21.1232 8.18884C21.166 8.15228 21.2012 8.10764 21.2268 8.05746C21.2524 8.00729 21.2678 7.95256 21.2723 7.89641C21.2767 7.84027 21.27 7.7838 21.2527 7.73023H21.2484Z" fill="black"/>
</svg>
