<svg width="382" height="54" viewBox="0 0 382 54" fill="none" xmlns="http://www.w3.org/2000/svg">
<path d="M29.7508 0.286133C34.7093 0.286133 40.7245 1.26454 43.976 3.1398C44.9514 3.71053 45.0327 3.8736 45.114 5.01507L46.0894 14.2283C46.0894 14.4729 45.2766 14.636 45.1953 14.3099C42.6754 5.5858 35.6035 2.07987 26.5807 2.07987C14.1438 2.07987 6.09649 10.8855 6.09649 24.0123C6.09649 39.5037 16.5824 51.9783 29.1818 51.9783C36.7415 51.9783 42.7567 47.9832 45.9269 38.8514C46.0081 38.5253 46.9023 38.6884 46.9023 38.933L45.683 48.1462C45.5204 49.4508 45.4391 49.6954 44.4637 50.0215C39.2614 52.2229 34.1403 53.1198 29.0193 53.1198C8.29122 53.1198 0 38.7699 0 26.2137C0 10.7224 14.3064 0.286133 29.7508 0.286133Z" fill="white"/>
<path d="M74.3727 53.1198C62.5861 53.1198 54.9452 43.9065 54.9452 33.3071C54.9452 19.9357 66.8943 13.0053 76.8925 13.0053C88.8417 13.0053 95.9949 22.8709 95.9949 32.4918C95.9949 43.6619 86.2405 53.1198 74.3727 53.1198ZM76.4861 51.4076C84.7773 51.4076 90.3861 45.211 90.3861 34.4486C90.3861 23.8493 84.6961 14.7175 74.2101 14.7175C65.5124 14.7175 60.554 20.9141 60.554 31.2688C60.554 42.3574 66.4879 51.4076 76.4861 51.4076Z" fill="white"/>
<path d="M122.831 52.4675C119.743 52.4675 115.516 51.9783 111.939 51.9783C108.85 51.9783 105.761 52.1414 103.404 52.1414C103.16 52.1414 103.16 51.163 103.404 51.163C108.688 51.163 109.582 50.2661 109.582 45.5372V20.5879C109.582 15.9405 108.688 14.9621 103.485 14.9621C103.241 14.9621 103.241 13.9837 103.485 13.9837C105.843 13.9837 108.85 14.2283 111.939 14.2283C115.191 14.2283 118.686 13.8207 121.856 13.8207C135.919 13.8207 143.803 21.974 143.803 32.8179C143.803 44.1511 135.187 52.4675 122.831 52.4675ZM121.856 51.326C131.854 51.326 137.951 45.048 137.951 33.7148C137.951 23.6862 133.074 14.8806 121.206 14.8806C116.329 14.8806 114.459 16.2667 114.459 20.751V44.6403C114.459 49.2062 115.76 51.326 121.856 51.326Z" fill="white"/>
<path d="M181.875 41.2974C181.875 40.9713 182.769 40.9713 182.769 41.2974C182.525 43.825 182.2 47.8201 182.2 50.9184C182.2 51.8152 181.956 52.1414 180.98 52.1414H151.23C150.986 52.1414 150.986 51.163 151.23 51.163C156.351 51.163 157.326 50.2661 157.326 45.5372V20.5879C157.326 15.9405 156.351 14.9621 151.23 14.9621C150.986 14.9621 150.986 13.9837 151.23 13.9837H179.599C180.168 13.9837 180.33 14.2283 180.33 14.636C180.33 17.3266 180.493 21.5663 180.493 23.6047C180.493 23.9308 179.599 23.9308 179.599 23.6047C179.111 18.6311 175.616 15.0437 170.982 15.0437H168.625C163.179 15.0437 162.203 16.0221 162.203 20.6695V31.758C172.364 31.6765 175.453 31.0242 176.266 31.0242C176.591 31.0242 176.754 31.8396 176.754 32.7364C176.754 33.7148 176.591 34.6117 176.266 34.6117C175.534 34.6117 172.364 33.7148 162.203 33.5518V45.211C162.203 49.7769 163.179 50.8368 168.625 50.8368H172.527C176.997 50.8368 180.655 46.8417 181.875 41.2974Z" fill="white"/>
<path d="M214.704 23.4416C223.483 24.0939 229.01 29.7197 229.01 37.1392C229.01 45.9448 222.019 52.4675 212.834 52.4675C209.42 52.4675 204.543 51.9783 200.885 51.9783C197.308 51.9783 193.894 52.1414 191.293 52.1414C190.968 52.1414 190.968 51.163 191.293 51.163C197.146 51.163 198.284 50.2661 198.284 45.5372V7.7872C198.284 3.1398 197.227 2.1614 191.374 2.1614C191.049 2.1614 191.049 1.183 191.374 1.183C193.976 1.183 197.308 1.4276 200.885 1.4276C203.73 1.4276 207.794 0.938401 210.477 0.938401C220.068 0.938401 224.052 5.66733 224.052 11.7008C224.052 17.082 220.312 21.2402 214.704 23.4416ZM208.688 2.1614C204.868 2.1614 203.567 2.56907 203.567 7.95027V23.4416C205.681 23.5231 207.063 23.5231 207.225 23.5231C215.598 23.5231 218.768 18.6311 218.768 12.3531C218.768 6.64574 216.004 2.1614 208.688 2.1614ZM211.615 50.9999C219.743 50.9999 223.32 46.5971 223.32 39.096C223.32 31.0242 218.361 25.3169 209.745 25.2353C207.794 25.1538 205.681 25.2353 203.567 25.3169V45.5372C203.567 49.4508 204.787 50.9999 211.615 50.9999Z" fill="white"/>
<path d="M278.807 51.163C279.051 51.163 279.051 52.1414 278.807 52.1414H269.297C267.346 52.1414 261.981 45.048 255.234 33.7148C254.096 33.9594 252.958 34.041 251.82 34.041C250.845 34.041 249.707 34.041 248.65 33.8779V45.5372C248.65 50.2661 249.463 51.163 254.665 51.163C254.909 51.163 254.909 52.1414 254.665 52.1414C252.308 52.1414 249.463 51.9783 246.049 51.9783C243.041 51.9783 239.871 52.1414 237.514 52.1414C237.27 52.1414 237.27 51.163 237.514 51.163C242.716 51.163 243.61 50.2661 243.61 45.5372V20.5879C243.61 15.9405 242.716 14.9621 237.595 14.9621C237.351 14.9621 237.351 13.9837 237.595 13.9837C239.953 13.9837 243.041 14.2283 246.049 14.2283C248.975 14.2283 252.958 13.7391 255.722 13.7391C262.713 13.7391 266.533 16.5113 266.533 21.6479C266.533 26.1322 263.77 29.9643 259.624 32.1657C268.484 46.6786 272.792 51.163 278.807 51.163ZM248.65 32.4103C249.626 32.5734 250.764 32.6549 252.389 32.6549C259.461 32.6549 261.25 29.2305 261.25 23.8493C261.25 17.8158 258.73 14.8806 253.609 14.8806C249.219 14.8806 248.65 16.8374 248.65 20.751V32.4103Z" fill="white"/>
<path d="M336.583 13.9837C336.908 13.9837 336.908 14.9621 336.583 14.9621C333.494 14.9621 331.299 16.2667 329.267 21.3217L317.156 52.0598C316.993 52.4675 315.53 52.4675 315.367 52.0598L307.239 34.8563L300.329 52.0598C300.167 52.4675 298.785 52.4675 298.541 52.0598L283.747 20.751C281.633 16.3482 280.495 14.9621 277.569 14.9621C277.244 14.9621 277.244 13.9837 277.569 13.9837C279.52 13.9837 281.877 14.2283 283.828 14.2283C286.511 14.2283 288.543 13.9837 290.087 13.9837C290.331 13.9837 290.331 14.9621 290.087 14.9621C288.462 14.9621 286.917 16.0221 288.705 19.9357L301.386 46.0264L306.345 33.0625L300.573 20.751C298.46 16.3482 297.647 14.9621 295.046 14.9621C294.802 14.9621 294.802 13.9837 295.046 13.9837C296.834 13.9837 298.785 14.2283 300.817 14.2283C302.931 14.2283 304.638 13.9837 305.938 13.9837C306.182 13.9837 306.182 14.9621 305.938 14.9621C303.337 14.9621 303.418 15.4513 305.532 19.9357L309.271 27.6813L311.953 20.4249C313.579 16.1851 313.173 14.9621 310.897 14.9621C310.571 14.9621 310.571 13.9837 310.897 13.9837C312.035 13.9837 312.929 14.2283 314.717 14.2283C317.318 14.2283 318.375 13.9837 320.732 13.9837C320.976 13.9837 320.976 14.9621 320.732 14.9621C317.4 14.9621 315.449 16.1036 313.579 20.9141L310.165 29.4751L318.212 46.0264L327.56 20.9141C329.105 16.7559 327.967 14.9621 324.797 14.9621C324.553 14.9621 324.553 13.9837 324.797 13.9837C326.504 13.9837 327.804 14.2283 330.161 14.2283C332.844 14.2283 334.145 13.9837 336.583 13.9837Z" fill="white"/>
<path d="M381.756 13.9837C382.081 13.9837 382.081 14.9621 381.756 14.9621C377.692 14.9621 376.147 17.1635 376.147 22.8709V53.0382C376.147 53.2828 375.416 53.3644 375.253 53.2013L348.429 20.6695C348.104 20.2618 347.778 19.8541 347.453 19.528V43.2542C347.453 48.9616 348.916 51.163 352.899 51.163C353.143 51.163 353.143 52.1414 352.899 52.1414C351.03 52.1414 349.079 51.9783 346.722 51.9783C344.446 51.9783 342.17 52.1414 340.3 52.1414C340.056 52.1414 340.056 51.163 340.3 51.163C344.364 51.163 345.828 48.9616 345.828 43.2542V17.8158C343.714 15.7775 342.088 14.9621 340.3 14.9621C340.056 14.9621 340.056 13.9837 340.3 13.9837C341.844 13.9837 343.551 14.0653 344.852 14.0653C346.397 14.0653 347.209 13.9837 349.16 13.9837C350.542 13.9837 350.623 15.2883 352.981 18.2235L374.522 44.8034V22.8709C374.522 17.1635 373.14 14.9621 369.157 14.9621C368.832 14.9621 368.832 13.9837 369.157 13.9837C371.026 13.9837 372.977 14.2283 375.335 14.2283C377.529 14.2283 379.887 13.9837 381.756 13.9837Z" fill="white"/>
</svg>
