<svg width="52" height="41" viewBox="0 0 52 41" fill="none" xmlns="http://www.w3.org/2000/svg">
<path d="M31.6233 18.6206C31.6233 18.6206 31.6085 18.628 31.5986 18.6305L31.6208 18.6182L31.6233 18.6206Z" fill="#F7F7F4"/>
<path d="M20.77 24.0045C20.7296 24.0297 20.6866 24.0525 20.6462 24.0752L20.6513 24.0525C20.6917 24.0348 20.7321 24.0196 20.77 24.002V24.0045Z" fill="#F7F7F4"/>
<path d="M50.2651 27.8204C48.1364 33.9491 42.4116 35.684 41.4192 35.9365C41.4041 35.9415 41.3965 35.9213 41.4116 35.9138C45.399 33.6764 47.2424 28.9239 45.8409 24.7118C44.4243 20.4618 39.9268 17.3179 35.3991 17.8937C34.5859 18.2346 33.7703 18.5679 32.9521 18.8962C31.3082 19.5452 27.6895 21.0982 26.0885 21.6638C29.4092 20.2396 32.9066 18.6235 36.3536 17.2169L38.1869 16.3533C39.0051 16.0629 40.2046 15.6058 41.6717 15.5654C42.5531 15.5427 46.7576 15.424 49.2954 18.4063C52.3055 21.9416 50.5 27.1487 50.2651 27.8229V27.8204Z" fill="#F7F7F4"/>
<path d="M31.6233 18.6206C31.6233 18.6206 31.6085 18.628 31.5986 18.6305L31.6208 18.6182L31.6233 18.6206Z" fill="#F7F7F4"/>
<path d="M16.5131 34.2538L16.4727 34.2967L16.4903 34.2664C16.503 34.2538 16.5105 34.2513 16.5105 34.2538H16.5131Z" fill="#F7F7F4"/>
<path d="M40.5202 36.5265C40.5202 36.5265 40.5127 36.5542 40.5101 36.5542C40.3107 36.7032 40.1086 36.8648 39.9016 37.0088C39.899 37.0113 39.8965 37.0138 39.894 37.0138C39.2703 37.385 38.5758 37.7184 37.8511 38.0189C38.1465 37.8876 38.442 37.7512 38.7324 37.6098C39.2753 37.3295 39.8132 37.0315 40.3031 36.6679L40.4091 36.5921L40.4622 36.5542L40.4899 36.534V36.5088C40.4899 36.5088 40.5127 36.5164 40.5152 36.5265H40.5202Z" fill="#F7F7F4"/>
<path d="M0.681651 19.9621C0.744782 19.7979 0.810439 19.6413 0.881145 19.4873C0.759934 19.8156 0.643772 20.1514 0.545288 20.4898C0.578116 20.3408 0.615995 20.1944 0.658924 20.0479C0.6665 20.0201 0.674075 19.9924 0.684176 19.9621H0.681651Z" fill="#F7F7F4"/>
<path d="M20.7701 24.0045C20.7297 24.0297 20.6868 24.0525 20.6464 24.0752L20.6514 24.0525C20.6918 24.0348 20.7322 24.0196 20.7701 24.002V24.0045Z" fill="#F7F7F4"/>
<path d="M18.4021 24.5438L18.4071 24.5539L18.4122 24.564L19.4147 24.0918L18.4046 24.5438H18.4021Z" fill="#F7F7F4"/>
<path d="M21.6214 19.6797C21.6113 19.6948 21.6012 19.71 21.5936 19.7251C21.5886 19.7327 21.5835 19.7403 21.581 19.7504L21.5608 19.7681C21.581 19.7378 21.6012 19.71 21.6214 19.6797Z" fill="#F7F7F4"/>
<path d="M20.6518 24.0553L20.6467 24.0781C20.1745 24.3483 19.6543 24.578 19.172 24.8331C16.5053 26.1689 13.869 27.5705 11.1165 28.722C10.0155 29.1689 8.80334 29.6967 7.68213 29.876C7.119 30.03 6.36901 30.1007 5.73517 30.0629C3.68973 29.9846 1.92711 28.8078 0.977624 27.0124C0.515506 26.1487 0.167023 25.2144 0.0483365 24.2397C-0.12338 22.8255 0.179648 21.2574 0.684696 19.9619C0.674595 19.9897 0.667019 20.0175 0.659444 20.0478C0.616515 20.1942 0.578636 20.3407 0.545808 20.4897C0.545808 20.4897 0.545808 20.4922 0.545808 20.4947C0.177123 21.7069 -0.0349971 22.9695 0.144295 24.2296C0.273082 25.1866 0.631666 26.1058 1.09631 26.9492C2.0357 28.6866 3.75791 29.8179 5.74527 29.8709C7.60132 29.9391 9.34121 29.1967 11.018 28.4821C13.1998 27.5326 15.3538 26.5099 17.5003 25.4796C18.5432 24.9998 19.6063 24.4897 20.6568 24.0553H20.6518Z" fill="#F7F7F4"/>
<path d="M41.1845 36.0927C40.8108 36.4185 40.3764 36.7241 39.9017 37.0069C40.1088 36.8629 40.3108 36.7039 40.5103 36.5523C40.5153 36.5523 40.5254 36.5347 40.5204 36.5246C40.5153 36.5145 40.5052 36.5069 40.4951 36.5069V36.5321L40.4674 36.5523L40.4143 36.5902L40.3083 36.666C39.8184 37.0296 39.2805 37.3276 38.7376 37.6079C38.4472 37.7493 38.1517 37.8882 37.8563 38.017C34.2679 39.5043 29.9472 40.1458 29.9472 40.1458H11.7554L10.263 40.1786C9.69985 40.4412 9.11652 40.6458 8.52309 40.8351C9.64934 40.7745 10.97 40.6937 11.9524 40.7038C14.5988 40.6963 21.8235 40.6634 24.5685 40.6533C25.3336 40.6205 29.1114 40.7367 29.7932 40.5498C32.5356 39.916 35.278 39.1609 37.8537 38.0145C38.5785 37.714 39.2729 37.3806 39.8966 37.0094C39.8259 37.0574 39.7552 37.1028 39.6845 37.1483C38.2098 38.1079 36.5608 38.7594 34.9093 39.3503C33.2452 39.9185 31.5583 40.4084 29.8437 40.8048C29.1442 41.0043 25.3563 40.8756 24.5685 40.9084C21.2124 40.8983 14.1922 40.8554 10.9044 40.8629C10.1872 40.8932 8.48016 40.9665 7.75542 40.9993H7.75037V40.868H7.75289C8.20238 40.8326 8.65693 40.6559 9.08874 40.5144C9.53066 40.3554 9.9751 40.2013 10.3892 39.9942C11.2276 39.5852 11.9801 39.0069 12.6089 38.315C12.6418 38.315 15.9523 34.7367 16.4498 34.2897C16.4523 34.2897 16.4549 34.2872 16.4549 34.2847C16.47 34.2721 16.4801 34.262 16.4902 34.2569L16.4725 34.2872L15.8261 35.4286L15.6973 35.6433C15.571 35.815 15.6948 36.0574 15.9094 36.0574H18.1771L20.124 26.6181L20.6493 24.0676C20.6922 24.0448 20.7326 24.0196 20.773 23.9969C20.7326 24.012 20.6922 24.0297 20.6543 24.0474L24.2376 22.4817L25.8386 21.7822V21.7898L24.8083 26.6231L22.8563 35.7948C22.8437 35.8529 22.8084 36.0321 22.7604 36.0624H41.1795C41.1795 36.0624 41.1971 36.0801 41.1896 36.0877L41.1845 36.0927Z" fill="#F7F7F4"/>
<path d="M16.5025 34.2422L16.4924 34.2624C16.4924 34.2624 16.4722 34.2801 16.457 34.2927C16.4873 34.2599 16.505 34.2422 16.505 34.2422H16.5025Z" fill="#F7F7F4"/>
<path d="M20.77 24.0045C20.7296 24.0297 20.6866 24.0525 20.6462 24.0752L20.6513 24.0525C20.6917 24.0348 20.7321 24.0196 20.77 24.002V24.0045Z" fill="#F7F7F4"/>
<path d="M40.5202 36.5245C40.5202 36.5245 40.5127 36.5523 40.5101 36.5523C40.3107 36.7013 40.1086 36.8629 39.9016 37.0068C39.899 37.0094 39.8965 37.0119 39.894 37.0119C39.2703 37.3831 38.5758 37.7164 37.8511 38.0169C38.1465 37.8856 38.442 37.7492 38.7324 37.6078C39.2753 37.3275 39.8132 37.0296 40.3031 36.6659L40.4091 36.5902L40.4622 36.5523L40.4899 36.5321V36.5068C40.4899 36.5068 40.5127 36.5144 40.5152 36.5245H40.5202Z" fill="#F7F7F4"/>
<path d="M31.6238 18.6182L31.6011 18.6308C31.6011 18.6308 31.6188 18.6232 31.6264 18.6207L31.6238 18.6182ZM0.682101 19.9616C0.672 19.9894 0.664425 20.0171 0.656849 20.0474C0.61392 20.1939 0.576041 20.3404 0.543213 20.4894C0.644222 20.151 0.757858 19.8151 0.879069 19.4868C0.810888 19.6409 0.742707 19.8 0.679576 19.9616H0.682101Z" fill="#F7F7F4"/>
<path d="M45.0152 5.6543C44.0632 2.64422 40.1087 1.52806 34.9294 1.48766L9.86644 1.35635C9.86644 1.35635 9.85382 1.3513 9.83109 1.34372C9.6316 1.27049 9.4624 1.13918 9.34119 0.977561C19.5962 0.997763 30.5582 0.924531 39.1996 0.934632C30.6113 0.853824 19.523 0.740188 9.19473 0.725037C9.14928 0.613926 9.1215 0.49019 9.1114 0.366453C9.10635 0.320999 9.1114 0.27807 9.1215 0.232615L9.1316 0.179585C9.15938 0.0230207 8.96241 -0.0653627 8.86392 0.058374C8.72503 0.235141 8.55079 0.457362 8.34625 0.712411C8.28059 0.793218 8.21241 0.876551 8.14423 0.964935C7.31343 1.99271 6.09121 3.46745 4.74526 4.93966C4.26294 5.46743 3.74779 5.96491 3.20234 6.42703C3.16194 6.45985 3.14678 6.50026 3.14678 6.53814C3.14678 6.64672 3.27305 6.74773 3.38668 6.6644L4.6089 5.78814C4.79576 5.62652 5.03566 5.54067 5.28314 5.54067H24.3411C24.4371 5.54067 24.5103 5.62905 24.4901 5.72248L23.5356 10.3714L23.076 12.6113C23.0709 12.6341 23.0633 12.6543 23.0507 12.6719C23.033 12.7022 23.0053 12.7275 22.975 12.7477C22.9245 12.778 22.8664 12.7982 22.8083 12.7957C22.7527 12.7957 22.7022 12.778 22.6644 12.7401C22.6113 12.6871 22.5558 12.6265 22.5002 12.5709C15.0003 2.43462 4.72758 13.5179 4.49526 13.7704L4.48769 13.778C4.37657 13.8841 2.07861 16.1189 0.9372 19.1997C0.9372 19.2073 0.93215 19.2123 0.929625 19.2174C0.841241 19.4623 0.757908 19.7098 0.684676 19.9648C0.747807 19.8007 0.813464 19.6441 0.88417 19.4901C0.762959 19.8184 0.646798 20.1542 0.548314 20.4926C0.548314 20.4926 0.548314 20.4951 0.548314 20.4977C0.220033 21.8992 0.184679 23.4219 0.699828 24.9698C2.5281 30.4622 7.29828 29.2703 7.73767 29.1466C7.75534 29.1415 7.77302 29.139 7.7907 29.1365C8.89675 28.9976 11.6543 27.8385 14.321 26.485L17.9068 24.7931L18.4119 24.5532L18.4068 24.5431L18.4018 24.533L19.4118 24.081L20.1947 23.73L20.7679 23.4724L20.7805 23.4673L21.7527 23.033L23.7654 22.1315L33.4092 17.8815L33.4294 17.8714C35.5784 16.9724 38.793 15.5861 38.9496 15.5078C39.7526 15.1896 42.8713 13.8462 44.3865 10.4497C44.6289 9.9068 45.1945 8.70732 45.2349 7.29823C45.2501 6.77298 45.1895 6.2149 45.0127 5.6543H45.0152ZM24.8386 15.5154C24.826 15.5305 24.8184 15.5457 24.8133 15.5633C24.7931 15.5886 24.7704 15.6138 24.7502 15.6391C23.6795 16.9219 22.4573 18.4497 21.624 19.682C21.6139 19.6972 21.6038 19.7123 21.5962 19.7275C21.5911 19.735 21.5861 19.7426 21.5835 19.7527C21.5558 19.8032 21.5381 19.8562 21.5255 19.9143L21.2376 21.283V21.2881H21.1189C20.9926 21.3285 20.8714 21.3689 20.7477 21.4067C19.7199 21.7325 18.7704 22.0305 17.9018 22.2981L13.1897 23.687C11.3765 24.2199 9.46746 24.3789 7.60383 24.0911C5.13667 23.7123 2.43972 22.5456 2.61143 19.2527C2.65184 18.4623 2.7781 17.576 3.05083 16.7679V16.7654C3.26295 16.1366 3.56597 15.5558 3.98516 15.1037C5.32354 13.6618 8.00534 11.8007 11.3993 11.528C11.6644 11.5103 11.9321 11.5129 12.1998 11.5356H12.2048C15.3235 11.7805 18.5659 14.4901 19.7123 16.9169C20.1694 17.8866 20.326 18.8537 20.3285 19.7249C20.3285 19.7729 20.3487 19.8108 20.3765 19.8386C20.4346 19.8916 20.5331 19.8966 20.5937 19.8259C20.8083 19.581 21.0583 19.3007 21.3235 19.0027C21.4901 18.8184 21.6618 18.6265 21.8386 18.432C21.8487 18.4194 21.8613 18.4068 21.8714 18.3967C21.874 18.3941 21.8765 18.3891 21.879 18.3866L21.874 18.4068L24.6189 15.528L25.4547 14.6517L25.4446 14.6467L25.4497 14.6416L26.9825 13.0356C26.8209 13.2174 26.2628 13.8462 25.5381 14.6972C25.3184 14.9548 25.0835 15.2325 24.8361 15.5255L24.8386 15.5154ZM31.6012 18.6315L31.6239 18.6189C31.6239 18.6189 31.6087 18.629 31.5986 18.6315H31.6012ZM31.5961 18.6214L31.6188 18.6088C31.6188 18.6088 31.6037 18.6189 31.5936 18.6214H31.5961ZM38.0532 14.225C38.0254 14.2502 37.9597 14.3108 37.9547 14.3159C37.4193 14.7957 35.8688 15.9396 31.9143 17.5608C30.5431 18.1239 28.8815 18.7426 26.8739 19.4118C26.7855 19.4421 26.6972 19.4699 26.6088 19.5002C26.4547 19.5507 26.3032 19.4143 26.3335 19.2552L26.4623 18.6391L26.4825 18.5406L26.7552 17.2275L27.5305 13.5078L27.5961 13.1896L27.6441 12.9649C28.0229 12.4598 28.5254 12.0507 28.98 11.682C29.8461 10.9851 30.7451 10.5255 31.2401 10.2982C31.2552 10.2906 31.1037 10.2528 31.0885 10.2578C30.7072 10.3664 29.6189 10.6012 27.8512 11.9573L27.8562 11.9396L27.9017 11.7275L29.235 5.66188C29.2502 5.59622 29.3057 5.54572 29.3764 5.54319H33.6163C33.7451 5.54319 33.8764 5.54319 34.0052 5.54824C34.8537 5.56844 36.6567 5.85885 36.7198 5.874C40.8082 6.62652 43.9925 8.70479 38.0557 14.2224L38.0532 14.225Z" fill="#F7F7F4"/>
</svg>
